<!-- Generated by IcoMoon.io -->
<svg version="1.1" xmlns="http://www.w3.org/2000/svg" width="32" height="32" viewBox="0 0 32 32">
<title>agendar</title>
<path fill="#68687b" d="M26.9 2.8h-3.3v-1.4c0-0.8-0.8-1.4-1.7-1.4s-1.7 0.6-1.7 1.4v1.4h-8.4v-1.4c0-0.8-0.8-1.4-1.7-1.4s-1.7 0.6-1.7 1.4v1.4h-3.3c-2.8 0-5.1 2.3-5.1 5.1v18.7c0 2.9 2.3 5.4 5.1 5.4h21.7c2.8 0 5.1-2.5 5.1-5.4v-18.7c0.1-2.8-2.2-5.1-5-5.1zM5.1 5.6h3.3v1.4c0 0.8 0.8 1.4 1.7 1.4s1.7-0.6 1.7-1.4v-1.4h8.4v1.4c0 0.8 0.8 1.4 1.7 1.4s1.7-0.6 1.7-1.4v-1.4h3.3c1.3 0 2.4 1.1 2.4 2.4v3.8h-26.5v-3.9c0-1.3 1-2.3 2.3-2.3zM26.9 29.2h-21.8c-1.3 0-2.4-1.3-2.4-2.6v-12h26.4v12.1c0.1 1.2-0.9 2.5-2.2 2.5z"></path>
</svg>
