<?xml version="1.0" encoding="utf-8"?>
<!-- Generator: Adobe Illustrator 25.0.0, SVG Export Plug-In . SVG Version: 6.00 Build 0)  -->
<svg version="1.1" id="Layer_1" xmlns="http://www.w3.org/2000/svg" xmlns:xlink="http://www.w3.org/1999/xlink" x="0px" y="0px"
	 viewBox="0 0 32 32" style="enable-background:new 0 0 32 32;" xml:space="preserve">
<g transform="translate(261.000000, 369.000000)">
	<g>
		<path class="st0" d="M-260.3-355.4c-1,1.4-1,3.3,0,4.7c2.2,3.2,7.2,8.5,15.3,8.5s13-5.4,15.3-8.6c1-1.4,1-3.3,0-4.7
			c-2.2-3.2-7.2-8.5-15.3-8.5C-253.1-363.9-258-358.6-260.3-355.4z M-245-344.8c-7.5,0-11.9-5.3-13.5-7.5c-0.3-0.4-0.3-1,0-1.4
			c1.6-2.3,6-7.5,13.5-7.5c7.5,0,11.9,5.3,13.5,7.5c0.3,0.4,0.3,1,0,1.4C-233.1-350.1-237.5-344.8-245-344.8z M-245-358.3
			c-2.9,0-5.3,2.4-5.3,5.3s2.4,5.3,5.3,5.3s5.3-2.4,5.3-5.3S-242.1-358.3-245-358.3z"/>
	</g>
</g>
</svg>
