<!-- Generated by IcoMoon.io -->
<svg version="1.1" xmlns="http://www.w3.org/2000/svg" width="32" height="32" viewBox="0 0 32 32">
<title>excluir</title>
<path fill="#68687b" d="M30.5 4.6h-8.4l-1.2-3.1-0.1-0.1c-0.4-0.9-1.3-1.4-2.2-1.4h-5.2c-1 0-1.9 0.6-2.4 1.5l-1.1 3.1h-8.4c-0.8 0-1.5 0.7-1.5 1.5s0.7 1.5 1.5 1.5h1.5l3.4 19.7c0.4 2.7 2.7 4.7 5.5 4.7h8.2c2.8 0 5.1-2 5.4-4.7l3.4-19.7h1.6c0.8 0 1.5-0.7 1.5-1.5s-0.7-1.5-1.5-1.5zM25.9 7.6l-3.3 19.3c-0.2 1.2-1.3 2.1-2.5 2.1h-8.2c-1.3 0-2.3-0.9-2.5-2.1l-3.3-19.3h19.8zM18.8 4.6h-5.6l0.5-1.6h4.6l0.5 1.6z"></path>
</svg>
