<?xml version="1.0" encoding="utf-8"?>
<!-- Generator: Adobe Illustrator 25.0.0, SVG Export Plug-In . SVG Version: 6.00 Build 0)  -->
<svg version="1.1" id="Layer_1" xmlns="http://www.w3.org/2000/svg" xmlns:xlink="http://www.w3.org/1999/xlink" x="0px" y="0px"
	 viewBox="0 0 32 32" style="enable-background:new 0 0 32 32;" xml:space="preserve">
<style type="text/css">
	.st0{fill:#68677B;}
</style>
<path id="Path_1717" class="st0" d="M31.9,7.1c-0.3-0.7-1.1-1-1.7-0.7c-0.3,0.1-0.6,0.4-0.7,0.7l-1,2.4C25,2.1,16.1-1.1,8.6,2.4
	s-10.7,12.5-7.2,20C3.9,27.6,9.2,31,15,31c5.7,0,10.9-3.2,13.4-8.4c0.3-0.6,0.1-1.4-0.6-1.8c0,0,0,0,0,0c-0.6-0.3-1.4,0-1.7,0.6
	c-3,6.1-10.4,8.7-16.5,5.7c-6.1-3-8.7-10.4-5.7-16.6C6,6.3,10.3,3.6,15,3.6c4.6,0,8.9,2.6,11,6.8l-2-0.8c-0.3-0.1-0.7-0.1-1,0
	c-0.3,0.1-0.6,0.4-0.7,0.7C22,11,22.4,11.8,23,12.1l5.2,2c0.2,0.1,0.3,0.1,0.5,0.1c0.5,0,1-0.3,1.2-0.8l2-5.2
	C32,7.8,32,7.4,31.9,7.1z"/>
</svg>
