<!-- Generated by IcoMoon.io -->
<svg version="1.1" xmlns="http://www.w3.org/2000/svg" width="32" height="32" viewBox="0 0 32 32">
<title>salvar</title>
<path fill="#68687b" d="M31.6 6.9l-6.5-6.5c-0.3-0.3-0.6-0.4-1-0.4h-21.8c-1.3 0-2.3 1-2.3 2.3v27.4c0 1.3 1 2.3 2.3 2.3h27.4c1.3 0 2.3-1 2.3-2.3v-21.8c0-0.3-0.1-0.7-0.4-1zM31.1 7.4v0 0 0zM23.9 19.3v9.9h-15.8v-9.9h15.8zM12.2 8.8v-6h9.4v5.9h-9.4zM24.5 16.5h-17c-1.3 0-2.3 1-2.3 2.3v10.4h-2.4v-26.4h6.5v6.5c0 1.3 1 2.3 2.3 2.3h10.5c1.3 0 2.3-1 2.3-2.3v-5.6l4.8 4.8v20.7h-2.4v-10.4c-0.1-1.3-1.1-2.3-2.3-2.3z"></path>
</svg>
